<svg width="18" height="20" viewBox="0 0 18 20" fill="none" xmlns="http://www.w3.org/2000/svg">
<path d="M8.50952 0.122135L0.790329 4.21998C0.685254 4.27576 0.597351 4.3591 0.536052 4.46105C0.474753 4.56301 0.442372 4.67973 0.442383 4.79869V15.0851C0.442379 15.2888 0.498811 15.4886 0.60542 15.6622C0.712029 15.8358 0.864648 15.9765 1.04635 16.0687L8.61594 19.908C8.73501 19.9684 8.86665 19.9999 9.00017 19.9999C9.13369 19.9999 9.26532 19.9684 9.3844 19.908L16.9541 16.0687C17.1357 15.9765 17.2884 15.8358 17.395 15.6622C17.5016 15.4886 17.558 15.2888 17.558 15.0851V4.79869C17.558 4.67972 17.5256 4.56299 17.4643 4.46104C17.403 4.35908 17.3151 4.27575 17.21 4.21998L9.49088 0.122135C9.33975 0.0419546 9.17128 3.05176e-05 9.0002 3.05176e-05C8.82912 3.05176e-05 8.66065 0.0419546 8.50952 0.122135Z" fill="#FFCE94"/>
<path d="M9 20C9.13173 20 9.26353 19.9694 9.38423 19.9082L16.9539 16.0688C17.1356 15.9767 17.2882 15.836 17.3948 15.6624C17.5014 15.4887 17.5578 15.289 17.5579 15.0853V4.7987C17.5575 4.69373 17.5317 4.5904 17.4829 4.49747L9 9.01555V20Z" fill="#FCB043"/>
<path d="M9.00023 9.01553L0.517388 4.49738C0.468503 4.59029 0.442773 4.69363 0.442383 4.79861V15.0851C0.442379 15.2888 0.498811 15.4886 0.60542 15.6622C0.712029 15.8358 0.864648 15.9765 1.04635 16.0687L8.61594 19.908C8.73501 19.9684 8.86665 19.9999 9.00017 19.9999L9.00023 9.01553Z" fill="#E2791B"/>
<path d="M12.0245 1.46713L3.43945 6.0391V7.50204C3.43946 7.57094 3.4582 7.63855 3.49366 7.69763C3.52912 7.75671 3.57997 7.80504 3.64077 7.83746L5.13275 8.63266C5.25114 8.69575 5.39404 8.60998 5.39404 8.47581V7.11043L13.9924 2.51185L12.0245 1.46713Z" fill="#DEF2FC"/>
<path d="M10.2373 17.0809L12.5276 15.9855C12.6711 15.9169 12.7918 15.8082 12.875 15.6726C12.9583 15.537 13.0006 15.3802 12.9968 15.2211L12.9966 15.211C12.9902 14.9429 12.7056 14.7737 12.4671 14.8963L10.2374 16.0414V17.0809H10.2373ZM10.2373 18.678L11.495 18.0938C11.6407 18.026 11.7635 17.9173 11.8484 17.7808C11.9332 17.6443 11.9764 17.486 11.9726 17.3254C11.9662 17.0564 11.68 16.8873 11.4413 17.0116L10.2373 17.6384V18.678Z" fill="#403A46"/>
<path d="M3.43945 6.0538V7.50204C3.43946 7.57095 3.4582 7.63856 3.49366 7.69764C3.52912 7.75672 3.57997 7.80505 3.64077 7.83747L5.13275 8.63267C5.25114 8.69576 5.39404 8.60999 5.39404 8.47582V7.11044L5.4086 7.10265L3.43945 6.0538Z" fill="#B6C8CE"/>
</svg>
